/vscmnt/brussel_pixiu_data/_data_brussel/112/vsc11236/PredSimResults/SUBJ04opt3D/worker_02.mot
version=1
nRows=4
nColumns=50
inDegrees=yes
endheader
                time	         pelvis_tilt	         pelvis_list	     pelvis_rotation	           pelvis_tx	           pelvis_ty	           pelvis_tz	       hip_flexion_r	     hip_adduction_r	      hip_rotation_r	        knee_angle_r	       ankle_angle_r	         mtp_angle_r	       hip_flexion_l	     hip_adduction_l	      hip_rotation_l	        knee_angle_l	       ankle_angle_l	         mtp_angle_l	    lumbar_extension	      lumbar_bending	     lumbar_rotation	 ercspn_r/activation	 intobl_r/activation	 extobl_r/activation	    abd_r/activation	    add_r/activation	hamstrings_r/activation	bifemsh_r/activation	glut_max_r/activation	iliopsoas_r/activation	rect_fem_r/activation	  vasti_r/activation	gastroc_r/activation	 soleus_r/activation	tib_ant_r/activation	 ercspn_l/activation	 intobl_l/activation	 extobl_l/activation	    abd_l/activation	    add_l/activation	hamstrings_l/activation	bifemsh_l/activation	glut_max_l/activation	iliopsoas_l/activation	rect_fem_l/activation	  vasti_l/activation	gastroc_l/activation	 soleus_l/activation	tib_ant_l/activation	
          0.00000000	         -2.52105969	          7.24108059	          6.54918822	          0.00000000	          0.87208367	          0.00054289	         33.70292639	         -7.74518482	         -0.94342015	        -12.65977568	          1.28706810	          0.22842578	        -12.18306316	          6.84279772	        -11.20369860	         -6.51644222	         14.13583745	         17.38140898	        -14.70178848	        -18.17713248	         -2.95392829	          0.01000002	          0.08496953	          0.07100518	          0.00999999	          0.08550556	          0.02095945	          0.12803228	          0.04067612	          0.16541256	          0.08257760	          0.02653229	          0.01000004	          0.01000000	          0.27386722	          0.01061085	          0.01000000	          0.01000000	          0.06286651	          0.01000014	          0.01338535	          0.18520623	          0.02279601	          0.02987077	          0.01000011	          0.01000000	          0.22468935	          0.21012343	          0.01255764	
          0.01802095	         -2.72180998	          7.08315534	          5.84786383	          0.01569556	          0.86946490	          0.00207825	         33.43754547	         -7.10054734	         -1.17998541	        -13.40237248	          1.00137014	          0.22195083	        -12.71885743	          6.65038515	        -12.41606734	         -7.06728400	         13.97310229	         18.87416716	        -14.20992415	        -17.14085710	         -3.44275059	          0.00999999	          0.07257622	          0.05460470	          0.01000001	          0.06575586	          0.04396768	          0.09846001	          0.06403082	          0.12720627	          0.06350418	          0.02040397	          0.01690906	          0.01300350	          0.30049161	          0.01498435	          0.01000000	          0.01690903	          0.04834587	          0.01300342	          0.01794963	          0.14242809	          0.01753109	          0.02297136	          0.01000000	          0.01000005	          0.21865981	          0.21829241	          0.00999999	
          0.03604189	         -2.91212277	          6.84475462	          5.09745080	          0.03187541	          0.86734205	          0.00359741	         33.15403448	         -6.53874134	         -1.38966504	        -14.10997991	          0.44967400	          0.21160917	        -13.16768719	          6.36667922	        -13.66935296	         -7.82954293	         13.62557911	         20.47034622	        -13.66930850	        -15.95310784	         -3.92199153	          0.01000006	          0.05581291	          0.04199234	          0.05497476	          0.08048231	          0.04549018	          0.07571814	          0.04924126	          0.09782471	          0.04883626	          0.04303146	          0.01300348	          0.01000001	          0.32825574	          0.01847763	          0.00999999	          0.01300345	          0.03717915	          0.01000008	          0.01380374	          0.10953066	          0.01348183	          0.05315239	          0.03717910	          0.01000001	          0.17012424	          0.20515235	          0.00999999	
          0.05406284	         -3.09532769	          6.62085163	          4.27915882	          0.04818628	          0.86605120	          0.00523329	         32.97954913	         -6.02931057	         -1.74491679	        -15.01672762	          0.02541307	          0.19293329	        -13.42874086	          6.06392283	        -14.97708838	         -8.94117219	         12.99736043	         22.15181304	        -13.14073475	        -14.74178375	         -4.40125150	          0.01000014	          0.04292148	          0.03229313	          0.07122541	          0.08092343	          0.04643867	          0.05822910	          0.03786774	          0.07522957	          0.03755627	          0.09023264	          0.01000002	          0.01000000	          0.34954373	          0.03001246	          0.00999999	          0.00999999	          0.02859167	          0.01000016	          0.01061551	          0.08423174	          0.01036786	          0.04087548	          0.02859164	          0.02605335	          0.13082967	          0.18562961	          0.00999999	
